<?xml version="1.0" standalone="no"?>
<!DOCTYPE svg PUBLIC "-//W3C//DTD SVG 1.1//EN" "http://www.w3.org/Graphics/SVG/1.1/DTD/svg11.dtd" >
<svg xmlns="http://www.w3.org/2000/svg" xmlns:xlink="http://www.w3.org/1999/xlink" version="1.1">
<metadata></metadata>
<defs>
<font id="griffithgothicblack" horiz-adv-x="1024" >
<font-face units-per-em="2048" ascent="1536" descent="-512" />
<missing-glyph horiz-adv-x="526" />
<glyph horiz-adv-x="0" />
<glyph unicode="&#xd;" horiz-adv-x="512" />
<glyph unicode=" "  horiz-adv-x="526" />
<glyph unicode="&#x09;" horiz-adv-x="526" />
<glyph unicode="&#xa0;" horiz-adv-x="526" />
<glyph unicode="!" horiz-adv-x="575" d="M102 1475h371l-94 -994h-180zM117 156q0 74 49 122t123 48q72 0 121 -48t49 -122q0 -72 -49.5 -121t-120.5 -49q-74 0 -123 49t-49 121z" />
<glyph unicode="&#x22;" horiz-adv-x="905" d="M78 1475h321l-80 -574h-161zM506 1475h321l-79 -574h-162z" />
<glyph unicode="#" horiz-adv-x="1325" d="M57 319v250h256l56 336h-242v250h285l53 320h151l-53 -320h342l51 320h152l-53 -320h213v-250h-254l-58 -336h242v-250h-285l-53 -319h-151l53 319h-340l-53 -319h-152l53 319h-213zM459 561h350l57 352h-348z" />
<glyph unicode="$" horiz-adv-x="1204" d="M35 219l160 187q74 -72 156.5 -121t185.5 -64v422q-121 35 -207 74t-141.5 89t-81 115.5t-25.5 153.5t31.5 159t89 121t138.5 79.5t177 38.5v88h168v-91q129 -10 224.5 -53t185.5 -119l-160 -186q-66 55 -129.5 92t-140.5 49v-395q135 -39 228 -80t150.5 -92t82 -116.5 t24.5 -155.5q0 -176 -126 -285t-339 -127v-197h-168v199q-154 12 -272.5 68.5t-210.5 146.5zM348 1090q0 -66 45 -112t144 -83v365q-94 -8 -141.5 -53.5t-47.5 -116.5zM666 215q219 18 219 184q0 72 -46 119t-173 90v-393z" />
<glyph unicode="%" horiz-adv-x="1900" d="M53 1057q0 102 29 182t80 135.5t121.5 85t156.5 29.5q84 0 155 -28.5t121 -84t77.5 -135.5t27.5 -184q0 -102 -28.5 -182t-79.5 -135.5t-122 -84t-155 -28.5q-172 0 -277.5 110.5t-105.5 319.5zM283 1059q0 -121 38.5 -186.5t116.5 -65.5q76 0 116 63.5t40 184.5 q0 123 -40 188.5t-116 65.5q-78 0 -116.5 -63.5t-38.5 -186.5zM362 0l525 766l387 709h264l-522 -766l-387 -709h-267zM1079 418q0 102 29 182t80 135.5t121.5 84t156.5 28.5q170 0 275.5 -111.5t105.5 -318.5q0 -102 -28.5 -182t-79.5 -135.5t-122 -85t-155 -29.5 q-172 0 -277.5 111.5t-105.5 320.5zM1309 420q0 -123 38.5 -188.5t116.5 -65.5q76 0 115 63.5t39 186.5q0 121 -39 186.5t-115 65.5q-78 0 -116.5 -63.5t-38.5 -184.5z" />
<glyph unicode="&#x26;" horiz-adv-x="1462" d="M41 403q0 68 16.5 127.5t55.5 112.5t102.5 102.5t155.5 98.5q-59 92 -88 165.5t-29 151.5q0 154 105.5 246t285.5 92q84 0 147.5 -24.5t107.5 -67.5t66.5 -101.5t22.5 -125.5q0 -115 -70.5 -201t-205.5 -162q80 -111 146.5 -194.5t119.5 -147.5q111 160 184 395l230 -98 q-111 -285 -258 -471q57 -57 98 -75.5t88 -18.5q39 0 64.5 4t56.5 12v-219q-39 -10 -70 -14t-72 -4q-100 0 -178 28.5t-168 110.5q-186 -145 -407 -145q-236 0 -371 110.5t-135 312.5zM338 449q0 -111 69.5 -181.5t184.5 -70.5q109 0 209 84q-66 76 -144.5 176t-173.5 231 q-80 -53 -112.5 -111.5t-32.5 -127.5zM506 1180q0 -53 19.5 -105.5t68.5 -122.5q84 53 122 109t38 115q0 66 -30 107.5t-89 41.5q-66 0 -97.5 -42t-31.5 -103z" />
<glyph unicode="'" horiz-adv-x="483" d="M78 1475h328l-80 -574h-168z" />
<glyph unicode="(" horiz-adv-x="763" d="M82 655q0 141 30.5 263t83 227.5t122 195t147.5 164.5h270q-172 -203 -249.5 -408.5t-77.5 -441.5t77.5 -441.5t249.5 -408.5h-270q-78 76 -147.5 165t-122 194.5t-83 227.5t-30.5 263z" />
<glyph unicode=")" horiz-adv-x="763" d="M31 -195q172 203 248.5 409t76.5 441q0 236 -76.5 442t-248.5 408h268q78 -76 147.5 -165t122 -194.5t83 -227.5t30.5 -263t-30.5 -263t-83 -227.5t-122 -194.5t-147.5 -165h-268z" />
<glyph unicode="*" horiz-adv-x="901" d="M51 1100l84 250l264 -179l-82 304h267l-82 -304l266 179l82 -250l-311 -19l247 -198l-213 -156l-122 301l-121 -301l-213 156l248 198z" />
<glyph unicode="+" horiz-adv-x="1228" d="M78 598v258h405v408h262v-408h406v-258h-406v-408h-262v408h-405z" />
<glyph unicode="," horiz-adv-x="483" d="M53 -236l58 574h327l-215 -574h-170z" />
<glyph unicode="-" horiz-adv-x="692" d="M68 457v266h557v-266h-557z" />
<glyph unicode="." horiz-adv-x="483" d="M63 164q0 76 50.5 126t128.5 50t128 -50t50 -126q0 -78 -50.5 -128t-127.5 -50q-78 0 -128.5 50t-50.5 128z" />
<glyph unicode="/" horiz-adv-x="897" d="M-39 -195l623 1700h293l-625 -1700h-291z" />
<glyph unicode="0" horiz-adv-x="1269" d="M76 672v131q0 168 40 298t112.5 218t176 134t230.5 46t230.5 -46t176 -134t112.5 -218t40 -298v-131q0 -168 -40 -298t-112.5 -218t-176 -134.5t-230.5 -46.5t-230.5 46.5t-176 134.5t-112.5 218t-40 298zM410 635q0 -193 54 -302.5t171 -109.5q119 0 173 108.5t54 301.5 v207q0 193 -54 302t-173 109q-117 0 -171 -109.5t-54 -299.5v-207z" />
<glyph unicode="1" horiz-adv-x="927" d="M59 1278v197h594v-1278h240v-197h-809v197h242v1081h-267z" />
<glyph unicode="2" horiz-adv-x="1161" d="M57 1124q84 188 207 281.5t324 93.5q123 0 213 -31.5t149.5 -89t88 -136.5t28.5 -175q0 -88 -21.5 -155.5t-64.5 -126t-108.5 -115t-155.5 -119.5q-133 -94 -206 -166t-105 -152h679v-233h-1007v193q53 150 157.5 271.5t278.5 254.5q127 96 187.5 171t60.5 171 q0 92 -48 146.5t-139 54.5q-82 0 -145 -55.5t-131 -196.5z" />
<glyph unicode="3" horiz-adv-x="1120" d="M43 -12v225q365 4 537 86t172 211q0 88 -51.5 128t-137.5 40q-53 0 -101 -9.5t-102 -25.5l-73 186q117 43 192.5 79t121.5 70t64.5 70.5t18.5 81.5q0 66 -40 103t-112 37t-146.5 -38t-164.5 -130l-166 155q117 121 239 181.5t281 60.5q205 0 309.5 -88t104.5 -225 q0 -125 -82 -206t-229 -140v-9q176 6 284.5 -71.5t108.5 -247.5q0 -127 -68.5 -225.5t-199.5 -165t-322.5 -101t-437.5 -32.5z" />
<glyph unicode="4" horiz-adv-x="1263" d="M53 362v228l586 885h387v-932h195v-181h-195v-362h-307v362h-666zM262 543h457v678h-19l-438 -660v-18z" />
<glyph unicode="5" horiz-adv-x="1167" d="M41 80l84 233q111 -49 196 -68.5t177 -19.5q133 0 206.5 71t73.5 206v10q0 117 -53 175t-154 58q-68 0 -120 -26.5t-107 -73.5h-225l65 830h840v-254h-637l-33 -369h15q66 59 134 90t181 31q188 0 304 -111.5t116 -329.5v-26q0 -135 -44 -234.5t-122 -164t-187.5 -96 t-238.5 -31.5q-72 0 -131 5t-114.5 17t-110 31.5t-115.5 46.5z" />
<glyph unicode="6" horiz-adv-x="1226" d="M72 530q0 248 127 493t356 452h387q-229 -166 -372.5 -339t-184.5 -317h12q63 61 141 99t199 38q92 0 172 -29.5t138.5 -89t92.5 -147.5t34 -203q0 -119 -39 -214t-112 -160.5t-175.5 -101.5t-231.5 -36q-256 0 -400 135.5t-144 419.5zM383 467q0 -121 61.5 -199 t176.5 -78q117 0 178 78t61 201q0 121 -58.5 197.5t-174.5 76.5q-57 0 -103.5 -21.5t-77 -59t-47 -88t-16.5 -107.5z" />
<glyph unicode="7" horiz-adv-x="1116" d="M39 1221v254h1044v-183q-92 -125 -178 -278.5t-159.5 -321.5t-132 -344t-93.5 -348h-334q37 158 94.5 320.5t129 320.5t155.5 305.5t172 274.5h-698z" />
<glyph unicode="8" horiz-adv-x="1236" d="M68 403q0 84 24.5 148.5t64.5 111t90 76t99 41.5v13q-43 14 -85 38.5t-75.5 63.5t-55 92t-21.5 123q0 90 37.5 161.5t105 122t161 78t203.5 27.5q113 0 207.5 -26.5t162 -76.5t105 -121t37.5 -161q0 -70 -21.5 -123t-55 -93t-75.5 -65.5t-85 -39.5v-13q49 -12 99 -40.5 t90 -75t64.5 -109.5t24.5 -147q0 -106 -44 -187.5t-119.5 -135.5t-176 -82t-213.5 -28t-212 28t-173.5 81t-118.5 133t-44 186zM379 434q0 -113 63.5 -178.5t173.5 -65.5q111 0 176.5 63.5t65.5 176.5q0 117 -66.5 184.5t-175.5 67.5q-106 0 -171.5 -65.5t-65.5 -182.5z M414 1083q0 -94 56 -152.5t146 -58.5q92 0 149.5 54.5t57.5 152.5q0 94 -54 149.5t-153 55.5q-96 0 -149 -56.5t-53 -144.5z" />
<glyph unicode="9" horiz-adv-x="1226" d="M53 987q0 119 39 214t111.5 160.5t175 101.5t231.5 36q256 0 400.5 -135t144.5 -420q0 -248 -127 -492.5t-356 -451.5h-387q229 166 372.5 339t184.5 316h-13q-63 -61 -141 -99t-199 -38q-92 0 -171.5 30t-138 89t-92.5 147t-34 203zM367 1006q0 -121 58 -198t175 -77 q59 0 104.5 21.5t76 59.5t47 88.5t16.5 107.5q0 121 -61.5 198.5t-176.5 77.5q-117 0 -178 -78t-61 -200z" />
<glyph unicode=":" horiz-adv-x="509" d="M78 164q0 76 50 126t128 50q76 0 126 -50t50 -126q0 -78 -50 -128t-126 -50q-78 0 -128 50t-50 128zM78 926q0 76 50 126t128 50q76 0 126 -50t50 -126q0 -78 -50 -128t-126 -50q-78 0 -128 50t-50 128z" />
<glyph unicode=";" horiz-adv-x="509" d="M53 -236l58 574h327l-215 -574h-170zM84 926q0 76 50 126t128 50t128 -50t50 -126q0 -78 -50 -128t-128 -50t-128 50t-50 128z" />
<glyph unicode="&#x3c;" horiz-adv-x="1228" d="M84 604v246l1049 450v-272l-754 -301l754 -301v-272z" />
<glyph unicode="=" horiz-adv-x="1228" d="M111 332v260h1007v-260h-1007zM111 862v260h1007v-260h-1007z" />
<glyph unicode="&#x3e;" horiz-adv-x="1228" d="M96 154v272l754 301l-754 301v272l1049 -450v-246z" />
<glyph unicode="?" horiz-adv-x="1017" d="M25 1143q35 86 78.5 152.5t102 111.5t134.5 68.5t174 23.5q213 0 327.5 -104.5t114.5 -272.5q0 -68 -13 -121t-42 -97t-73 -84t-103 -81q-43 -31 -73.5 -58.5t-51 -57t-32 -63.5t-15.5 -79h-193q-6 78 -2 133.5t22.5 99.5t52.5 83t85 82q70 59 99.5 111t29.5 118 q0 68 -38 111t-109 43q-74 0 -128.5 -48.5t-111.5 -177.5zM285 156q0 74 49 122t121 48q74 0 123 -48t49 -122q0 -72 -49.5 -121t-122.5 -49q-72 0 -121 49t-49 121z" />
<glyph unicode="@" horiz-adv-x="1986" d="M84 543q0 203 76 378t205 303t302 201.5t367 73.5q184 0 343 -58.5t275.5 -165t183.5 -258t67 -335.5q0 -147 -41 -264t-110 -198t-160 -125t-193 -44q-133 0 -202 66.5t-85 171.5h-8q-66 -111 -153 -174.5t-185 -63.5q-123 0 -188.5 88t-65.5 250q0 115 25.5 233.5 t75 217t122 161t166.5 62.5q109 0 166 -59.5t92 -155.5h8l37 215l273 -43l-117 -651q-16 -94 14.5 -153.5t112.5 -59.5q63 0 121.5 40t103.5 109.5t71.5 164.5t26.5 208q0 172 -57 309t-160.5 233.5t-248 148.5t-316.5 52q-180 0 -335.5 -68.5t-270.5 -187t-180.5 -278.5 t-65.5 -342q0 -193 59.5 -351.5t169 -271t263 -175t342.5 -62.5q186 0 325.5 35.5t276.5 111.5l39 -65q-143 -78 -294 -119t-351 -41q-207 0 -377 66.5t-291 189.5t-187.5 296t-66.5 384zM791 397q0 -84 28.5 -131t85.5 -47q43 0 84 40t73 106.5t50 149.5t18 169 q0 80 -32.5 135t-91.5 55q-45 0 -84 -38.5t-68 -104t-46 -151.5t-17 -183z" />
<glyph unicode="A" horiz-adv-x="1406" d="M33 0l459 1481h423l459 -1481h-334l-92 334h-499l-93 -334h-323zM498 545h401l-194 696h-13z" />
<glyph unicode="B" horiz-adv-x="1280" d="M119 0v1475h569q229 0 362.5 -93.5t133.5 -273.5q0 -70 -21.5 -122t-57.5 -90t-82 -64.5t-95 -43.5v-8q141 -43 222 -127.5t81 -242.5q0 -199 -147.5 -304.5t-397.5 -105.5h-567zM434 231h193q129 0 208.5 48t79.5 167t-74.5 171.5t-213.5 52.5h-193v-439zM434 879h203 q109 0 170 46t61 140q0 88 -59 133t-168 45h-207v-364z" />
<glyph unicode="C" horiz-adv-x="1247" d="M80 688v98q0 172 41 305.5t116.5 223.5t181 137t236.5 47q127 0 219.5 -36t157 -98t103.5 -150.5t57 -192.5l-313 -74q-25 158 -75 230.5t-149 72.5q-125 0 -181 -116.5t-56 -307.5v-178q0 -94 14 -173t43 -135t75 -87t109 -31q102 0 155.5 75t82.5 232l301 -71 q-43 -231 -175 -357.5t-368 -126.5q-129 0 -235.5 46.5t-182 137.5t-116.5 224t-41 305z" />
<glyph unicode="D" horiz-adv-x="1308" d="M119 0v1475h495q143 0 258 -45.5t195 -133.5t123 -219t43 -301v-76q0 -172 -44 -302t-125 -219t-195.5 -134t-258.5 -45h-491zM440 248h164q141 0 216 104.5t75 317.5v133q0 424 -295 424h-160v-979z" />
<glyph unicode="E" horiz-adv-x="1153" d="M119 0v1475h950v-254h-627v-340h469v-240h-469v-387h652v-254h-975z" />
<glyph unicode="F" horiz-adv-x="1093" d="M119 0v1475h934v-254h-607v-377h437v-246h-437v-598h-327z" />
<glyph unicode="G" horiz-adv-x="1331" d="M80 688v98q0 172 41 305.5t116.5 223.5t183 137t238.5 47q127 0 220.5 -34.5t158 -96t104.5 -146.5t60 -188l-313 -76q-25 145 -78 219t-152 74q-123 0 -182 -111.5t-59 -312.5v-178q0 -207 63.5 -316.5t188.5 -109.5q215 0 235 363h-237v127h571v-717h-125l-41 293h-10 q-59 -147 -162.5 -230.5t-263.5 -83.5q-262 0 -409.5 182.5t-147.5 530.5z" />
<glyph unicode="H" horiz-adv-x="1327" d="M119 0v1475h327v-572h435v572h327v-1475h-327v621h-435v-621h-327z" />
<glyph unicode="I" horiz-adv-x="890" d="M82 0v125h201v1225h-201v125h729v-125h-201v-1225h201v-125h-729z" />
<glyph unicode="J" horiz-adv-x="1105" d="M31 440l305 56q4 -147 49 -205t125 -58q78 0 120 52.5t42 169.5v1020h327v-1008q0 -248 -127 -370t-368 -122q-231 0 -347 112t-126 353z" />
<glyph unicode="K" horiz-adv-x="1331" d="M119 0v1475h327v-1475h-327zM483 793v4l463 678h357l-478 -668l512 -807h-360z" />
<glyph unicode="L" horiz-adv-x="1081" d="M119 0v1475h327v-1203h601v-272h-928z" />
<glyph unicode="M" horiz-adv-x="1814" d="M119 0v1475h493l295 -1043h11l292 1043h486v-1475h-301v1116h-15l-317 -1116h-320l-317 1116h-14v-1116h-293z" />
<glyph unicode="N" horiz-adv-x="1341" d="M119 0v1475h332l458 -906h11v906h303v-1475h-301l-490 961h-10v-961h-303z" />
<glyph unicode="O" horiz-adv-x="1323" d="M80 688v98q0 172 41 305.5t116.5 223.5t183 137t241.5 47q133 0 239.5 -46t183 -137t117.5 -224.5t41 -305.5v-98q0 -172 -41 -305t-117.5 -223t-183 -137.5t-239.5 -47.5t-241 46.5t-183.5 137.5t-116.5 224t-41 305zM418 649q0 -203 59.5 -314.5t184.5 -111.5 t184 110.5t59 313.5v178q0 203 -59.5 314.5t-183.5 111.5q-125 0 -184.5 -111.5t-59.5 -312.5v-178z" />
<glyph unicode="P" horiz-adv-x="1212" d="M119 0v1475h512q246 0 391 -110t145 -333q0 -236 -143 -351.5t-410 -115.5h-168v-565h-327zM434 801h166q119 0 179.5 57t60.5 168q0 217 -244 217h-162v-442z" />
<glyph unicode="Q" horiz-adv-x="1323" d="M80 688v98q0 172 41 305.5t116.5 223.5t183 137t241.5 47q133 0 239.5 -46t183 -137t117.5 -224.5t41 -305.5v-98q0 -199 -55 -346t-154 -236l60 -77q29 -41 59.5 -58.5t77.5 -17.5q37 0 82 10v-196q-20 -6 -41 -8.5t-49 -2.5q-94 0 -155.5 30t-121.5 116l-76 110 q-47 -16 -99 -26.5t-109 -10.5q-133 0 -241 46.5t-183.5 137.5t-116.5 224t-41 305zM418 621q0 -203 59.5 -314.5t184.5 -111.5q53 0 94 22l-156 232l111 69l129 -182q35 49 50 120.5t15 164.5v204q0 203 -59.5 314.5t-183.5 111.5q-125 0 -184.5 -111.5t-59.5 -312.5v-206z " />
<glyph unicode="R" horiz-adv-x="1271" d="M119 0v1475h534q244 0 385.5 -106.5t141.5 -332.5q0 -154 -77 -255t-222 -142l362 -639h-352l-324 594h-121v-594h-327zM434 811h180q117 0 178.5 55t61.5 166q0 106 -62.5 158.5t-181.5 52.5h-176v-432z" />
<glyph unicode="S" horiz-adv-x="1224" d="M45 256l205 186q143 -221 379 -221q115 0 175 43t60 123q0 37 -13 66.5t-48 55.5t-95.5 49.5t-156.5 49.5q-131 35 -219 77t-141.5 97.5t-77 125t-23.5 159.5q0 98 35 177t100.5 134.5t159.5 86t211 30.5q184 0 304 -57.5t210 -177.5l-205 -187q-66 88 -142.5 134 t-174.5 46q-102 0 -151.5 -43t-49.5 -106q0 -35 12.5 -63.5t46 -54t93 -50.5t153.5 -49q135 -37 226.5 -82t144.5 -101.5t75.5 -126t22.5 -155.5q0 -111 -38 -194t-108.5 -138t-171 -82.5t-222.5 -27.5q-209 0 -344.5 68.5t-231.5 207.5z" />
<glyph unicode="T" horiz-adv-x="1210" d="M39 1202v273h1132v-273h-401v-1202h-328v1202h-403z" />
<glyph unicode="U" horiz-adv-x="1296" d="M106 541v934h328v-943q0 -160 59.5 -229.5t163.5 -69.5t163 68t59 227v947h311v-934q0 -150 -39 -256.5t-110.5 -175t-171 -101.5t-222.5 -33t-222 33t-170 101.5t-110 175t-39 256.5z" />
<glyph unicode="V" horiz-adv-x="1353" d="M33 1475h340l305 -1133h8l305 1133h332l-465 -1485h-362z" />
<glyph unicode="W" horiz-adv-x="2023" d="M39 1475h340l211 -1088h12l238 1088h346l239 -1088h11l213 1088h329l-364 -1485h-350l-250 1069h-13l-249 -1069h-349z" />
<glyph unicode="X" horiz-adv-x="1331" d="M31 0l463 739l-437 736h367l258 -451l268 451h322l-434 -697l462 -778h-366l-285 494l-295 -494h-323z" />
<glyph unicode="Y" horiz-adv-x="1316" d="M18 1475h351l305 -605l303 605h323l-477 -893v-582h-327v575z" />
<glyph unicode="Z" horiz-adv-x="1163" d="M63 0v223l664 998h-631v254h1004v-224l-664 -997h664v-254h-1037z" />
<glyph unicode="[" horiz-adv-x="796" d="M121 -184v1679l629 -20v-125l-340 12v-1413l340 12v-125z" />
<glyph unicode="\" horiz-adv-x="897" d="M23 1505h292l621 -1700h-293z" />
<glyph unicode="]" horiz-adv-x="796" d="M47 -39l340 -12v1413l-340 -12v125l629 20v-1679l-629 20v125z" />
<glyph unicode="^" horiz-adv-x="1126" d="M61 834l359 651h287l358 -651h-201l-301 389l-301 -389h-201z" />
<glyph unicode="_" d="M-6 -72h1036v-135h-1036v135z" />
<glyph unicode="`" d="M225 1522h348l160 -310h-201z" />
<glyph unicode="a" horiz-adv-x="1073" d="M45 276q0 166 148.5 261.5t465.5 107.5v98q0 150 -145 150q-66 0 -141.5 -23.5t-179.5 -78.5l-82 182q115 59 221 94t235 35q199 0 288 -82t89 -270v-529q0 -59 21.5 -84.5t81.5 -34.5v-112q-174 0 -263.5 43t-113.5 119h-11q-78 -84 -153.5 -124t-167.5 -40 q-59 0 -112.5 18.5t-93.5 55t-63.5 91t-23.5 123.5zM326 313q0 -70 40 -107.5t107 -37.5q102 0 186 86v276q-94 -6 -157.5 -24.5t-102.5 -47t-56 -65.5t-17 -80z" />
<glyph unicode="b" horiz-adv-x="1124" d="M104 31v1470l310 49v-659h8q66 100 133.5 157.5t167.5 57.5q156 0 246 -137.5t90 -399.5v-47q0 -262 -94.5 -400t-241.5 -138q-106 0 -174 56t-127 157h-8v-213zM412 543q0 -176 49 -268.5t127 -92.5q72 0 120 83t48 278q0 201 -48.5 282.5t-119.5 81.5q-78 0 -127 -92 t-49 -272z" />
<glyph unicode="c" horiz-adv-x="1005" d="M61 522v45q0 125 33 225.5t95.5 171t150.5 108.5t199 38q354 0 422 -348l-275 -55q-18 104 -51 153t-100 49q-84 0 -125 -84t-41 -270v-20q0 -186 42 -270.5t128 -84.5q59 0 96 43t61 152l269 -56q-41 -174 -150.5 -256.5t-286.5 -82.5q-106 0 -193 37.5t-147.5 107.5 t-93.5 171t-33 226z" />
<glyph unicode="d" horiz-adv-x="1124" d="M66 522v45q0 262 94 400.5t241 138.5q104 0 173 -56.5t126 -156.5h11v608l309 49v-1519l-309 -47v215h-11q-63 -98 -130.5 -156.5t-170.5 -58.5q-156 0 -244.5 137t-88.5 401zM369 547q0 -100 13 -170t35.5 -113t52.5 -62.5t65 -19.5q78 0 128 92.5t50 272.5 q0 176 -49.5 268t-128.5 92q-70 0 -118 -83t-48 -277z" />
<glyph unicode="e" horiz-adv-x="1019" d="M61 526v41q0 125 33 225.5t92.5 171t142.5 108.5t185 38q211 0 329 -144.5t118 -400.5v-92h-613q8 -156 72.5 -218t169.5 -62q72 0 144.5 23.5t158.5 74.5l76 -189q-53 -31 -102.5 -53t-99.5 -36.5t-104.5 -21.5t-119.5 -7q-227 0 -354.5 140t-127.5 402zM348 598h326 q-6 184 -44 259t-116 75q-80 0 -121 -79t-45 -255z" />
<glyph unicode="f" horiz-adv-x="794" d="M25 877v206h194v115q0 178 94.5 267t272.5 89q84 0 137 -7t106 -21v-209q-39 16 -76.5 22.5t-90.5 6.5q-70 0 -104 -33t-34 -107v-123h260v-206h-260v-877h-305v877h-194z" />
<glyph unicode="g" horiz-adv-x="1124" d="M66 522v45q0 262 94 400.5t241 138.5q104 0 173 -56.5t126 -156.5h11v215l309 -49v-985q0 -256 -130 -360.5t-384 -104.5q-111 0 -192 14.5t-140 36.5v201h62q33 -41 90 -65.5t155 -24.5q106 0 168 57t62 197v174h-11q-63 -98 -130.5 -156.5t-170.5 -58.5 q-156 0 -244.5 137t-88.5 401zM369 547q0 -100 13 -170t35.5 -113t52.5 -62.5t65 -19.5q78 0 128 92.5t50 272.5q0 176 -49.5 268t-128.5 92q-70 0 -118 -83t-48 -277z" />
<glyph unicode="h" horiz-adv-x="1107" d="M104 0v1501l310 49v-684h8q92 119 174 178.5t186 59.5q115 0 174.5 -70.5t59.5 -208.5v-825h-307v754q0 133 -113 133q-88 0 -182 -117v-770h-310z" />
<glyph unicode="i" horiz-adv-x="536" d="M102 1249v240h332v-240h-332zM115 0v1090h307v-1090h-307z" />
<glyph unicode="j" horiz-adv-x="536" d="M-119 -176q31 -10 56.5 -15.5t56.5 -5.5q53 0 87 30t34 104v1153h307v-1137q0 -190 -87 -266t-249 -76q-68 0 -114 7t-91 22v184zM102 1249v240h332v-240h-332z" />
<glyph unicode="k" horiz-adv-x="1114" d="M104 0v1501l310 49v-1550h-310zM438 547v6l334 537h326l-353 -535l373 -555h-334z" />
<glyph unicode="l" horiz-adv-x="536" d="M115 0v1501l307 49v-1550h-307z" />
<glyph unicode="m" horiz-adv-x="1695" d="M104 0v1059l310 49v-242h8q92 119 171 178.5t181 59.5q104 0 161.5 -57.5t68.5 -165.5v-15h14q92 119 170 178.5t182 59.5q115 0 174.5 -70.5t59.5 -208.5v-825h-310v754q0 133 -108 133q-86 0 -178 -115v-772h-308v754q0 133 -110 133q-86 0 -176 -115v-772h-310z" />
<glyph unicode="n" horiz-adv-x="1107" d="M104 0v1059l310 49v-242h8q92 119 174 178.5t186 59.5q115 0 174.5 -70.5t59.5 -208.5v-825h-307v754q0 133 -113 133q-88 0 -182 -117v-770h-310z" />
<glyph unicode="o" horiz-adv-x="1083" d="M61 522v45q0 125 33 225.5t94.5 171t150.5 108.5t202 38t201.5 -38t151 -107.5t95.5 -170t33 -225.5v-47q0 -125 -33 -225t-95.5 -171t-151.5 -108.5t-201 -37.5q-113 0 -202 37.5t-150.5 107.5t-94.5 171t-33 226zM369 522q0 -186 42 -271t130 -85t131 84t43 270v49 q0 186 -43 270.5t-131 84.5t-130 -84t-42 -271v-47z" />
<glyph unicode="p" horiz-adv-x="1124" d="M104 -385v1444l310 49v-217h8q66 100 133.5 157.5t167.5 57.5q156 0 246 -137.5t90 -399.5v-47q0 -262 -94.5 -400t-241.5 -138q-106 0 -174 56t-127 157h-8v-582h-310zM412 543q0 -176 49 -268.5t127 -92.5q72 0 120 83t48 278q0 201 -48.5 282.5t-119.5 81.5 q-78 0 -127 -92t-49 -272z" />
<glyph unicode="q" horiz-adv-x="1124" d="M66 522v45q0 262 94 400.5t241 138.5q104 0 173 -56.5t126 -156.5h11v215l309 -49v-1444h-309v584h-11q-63 -98 -130.5 -156.5t-170.5 -58.5q-156 0 -244.5 137t-88.5 401zM369 547q0 -100 13 -170t35.5 -113t52.5 -62.5t65 -19.5q78 0 128 92.5t50 272.5 q0 176 -49.5 268t-128.5 92q-70 0 -118 -83t-48 -277z" />
<glyph unicode="r" horiz-adv-x="856" d="M104 0v1059l310 49v-416h8q104 205 201.5 302.5t205.5 113.5v-315q-135 -18 -237.5 -76t-177.5 -135v-582h-310z" />
<glyph unicode="s" horiz-adv-x="925" d="M27 154l149 155q59 -70 139 -104.5t158 -34.5q70 0 113 27.5t43 78.5q0 25 -9.5 45.5t-33 38t-65.5 35t-109 37.5q-188 53 -266 138t-78 212q0 78 29.5 138.5t82.5 102.5t127 64.5t160 22.5q131 0 223 -39t164 -113l-149 -157q-63 66 -120 93.5t-126 27.5q-63 0 -95 -31 t-32 -72q0 -45 42 -78.5t163 -68.5q195 -55 274.5 -138.5t79.5 -216.5q0 -84 -31 -147.5t-87 -105t-134 -62t-172 -20.5q-154 0 -261.5 48t-178.5 124z" />
<glyph unicode="t" horiz-adv-x="860" d="M25 877v206h188v342l305 68v-410h273v-206h-273v-555q0 -51 25.5 -78t70.5 -27q41 0 89.5 15.5t119.5 50.5v-228q-80 -39 -155.5 -57t-163.5 -18q-145 0 -218 65.5t-73 206.5v625h-188z" />
<glyph unicode="u" horiz-adv-x="1107" d="M92 266v824h309v-754q0 -133 111 -133q90 0 184 116v771h308v-1059l-308 -47v239h-10q-92 -119 -174 -177t-184 -58q-115 0 -175.5 69.5t-60.5 208.5z" />
<glyph unicode="v" horiz-adv-x="1093" d="M27 1090h317l211 -785l211 785h301l-352 -1100h-336z" />
<glyph unicode="w" horiz-adv-x="1683" d="M33 1090h317l164 -762l186 762h299l187 -762l164 762h303l-307 -1098h-320l-180 729l-182 -729h-326z" />
<glyph unicode="x" horiz-adv-x="1095" d="M31 0l356 543l-346 547h332l186 -326l193 326h303l-346 -525l356 -565h-332l-196 342l-203 -342h-303z" />
<glyph unicode="y" horiz-adv-x="1093" d="M27 1090h317l211 -799l211 799h301l-381 -1190q-27 -84 -61.5 -140.5t-80.5 -90.5t-105.5 -48t-137.5 -14q-80 0 -135 11t-109 32v200h62q27 -41 55.5 -61t81.5 -20q100 0 139 98l21 53z" />
<glyph unicode="z" horiz-adv-x="940" d="M53 0v182l490 699h-459v206h807v-182l-490 -698h490v-207h-838z" />
<glyph unicode="{" horiz-adv-x="905" d="M31 594v123q115 0 191.5 45t76.5 153q0 35 -6 73t-14.5 78t-14.5 79t-6 72q0 258 305 258h291v-125h-154q-78 0 -116.5 -39t-38.5 -105q0 -27 6 -61.5t14 -72.5t14.5 -79t6.5 -78q0 -59 -17.5 -100t-47 -69.5t-68.5 -48t-82 -33.5v-17q43 -14 82 -33.5t68.5 -48t47 -69.5 t17.5 -101q0 -37 -6.5 -76.5t-14.5 -78.5t-14 -74t-6 -62q0 -66 39 -104.5t116 -38.5h154v-125h-291q-305 0 -305 258q0 33 6 72t14.5 79t14.5 78.5t6 71.5q0 109 -77 154t-191 45z" />
<glyph unicode="|" horiz-adv-x="532" d="M139 -385v1946h254v-1946h-254z" />
<glyph unicode="}" horiz-adv-x="905" d="M51 -39h154q78 0 116.5 39t38.5 104q0 27 -6 62t-14 74t-14.5 78.5t-6.5 76.5q0 59 17.5 100.5t47.5 70t69 48t82 33.5v17q-43 14 -82 33.5t-69 48t-47.5 69.5t-17.5 100q0 37 6.5 78t14.5 79t14 73t6 61q0 66 -38.5 105t-116.5 39h-154v125h293q305 0 305 -258 q0 -33 -6 -72t-14 -79t-14.5 -78t-6.5 -73q0 -109 77 -153.5t192 -44.5v-123q-115 0 -192 -45t-77 -154q0 -33 6.5 -71.5t14.5 -78.5t14 -79t6 -72q0 -258 -305 -258h-293v125z" />
<glyph unicode="~" horiz-adv-x="841" d="M70 440q-8 160 39 232.5t151 72.5q49 0 91 -16t79 -36.5t68.5 -37t58.5 -16.5q37 0 53.5 23.5t18.5 78.5h143q8 -160 -39 -232.5t-151 -72.5q-49 0 -91 17.5t-79 37t-68 37t-59 17.5q-37 0 -53.5 -24.5t-18.5 -80.5h-143z" />
<glyph unicode="&#xa1;" horiz-adv-x="575" d="M102 0l97 993h180l94 -993h-371zM119 1319q0 72 48 121t122 49q72 0 121 -49t49 -121t-49.5 -121t-120.5 -49q-74 0 -122 49t-48 121z" />
<glyph unicode="&#xa2;" horiz-adv-x="1028" d="M61 522v45q0 125 33 225.5t95.5 171t150.5 108.5t199 38q106 0 192 -35l94 209h174l-526 -1096q29 -14 66 -14q59 0 104 44t70 157l252 -56q-41 -174 -150.5 -256.5t-286.5 -82.5q-80 0 -151 22l-96 -197h-175l138 265q-88 66 -135.5 182.5t-47.5 269.5zM350 535 q0 -70 13.5 -126.5t35.5 -95.5l244 576q-41 27 -102 26q-90 0 -140.5 -83.5t-50.5 -276.5v-20z" />
<glyph unicode="&#xa3;" horiz-adv-x="1243" d="M66 655v154h184q-23 66 -38 132.5t-15 137.5q0 92 29.5 169t90 133.5t148.5 87t205 30.5q109 0 187.5 -21.5t135 -60.5t97 -95t71.5 -124l-266 -123q-47 98 -98.5 144.5t-130.5 46.5q-92 0 -136.5 -51.5t-44.5 -137.5q0 -66 19.5 -131t42.5 -137h375v-154h-334 q23 -86 22 -184q0 -47 -7 -88t-21 -78q115 -68 206 -67q94 0 141.5 45t84.5 157l196 -65q-45 -201 -128 -294t-246 -93q-104 0 -191.5 33.5t-185.5 95.5q-137 -109 -371 -129v219q121 23 180.5 81t59.5 185q0 49 -8.5 94t-18.5 88h-235z" />
<glyph unicode="&#xa4;" d="M55 424l367 25l-316 280v16l316 281l-367 25l92 274l312 -199l-94 349h294l-94 -349l312 199l92 -274l-367 -25l316 -281v-16l-316 -280l367 -25l-92 -274l-312 198l94 -348h-294l94 348l-312 -198zM365 737l147 -260l147 260l-147 260z" />
<glyph unicode="&#xa5;" horiz-adv-x="1310" d="M20 1475h345l305 -641l305 641h315l-348 -646h256v-153h-338l-51 -94v-144h389v-153h-389v-285h-307v285h-387v153h387v137l-53 101h-334v153h254z" />
<glyph unicode="&#xa6;" d="M55 424l367 25l-316 280v16l316 281l-367 25l92 274l312 -199l-94 349h294l-94 -349l312 199l92 -274l-367 -25l316 -281v-16l-316 -280l367 -25l-92 -274l-312 198l94 -348h-294l94 348l-312 -198zM365 737l147 -260l147 260l-147 260z" />
<glyph unicode="&#xa7;" horiz-adv-x="1232" d="M53 725q0 100 86 164.5t242 81.5v12q-100 35 -153.5 96.5t-53.5 151.5q0 121 103.5 194.5t308.5 73.5q150 0 262.5 -28.5t230.5 -94.5l-108 -178q-104 57 -201.5 83t-196.5 26q-74 0 -112.5 -22.5t-38.5 -59.5q0 -23 9 -42.5t42 -38t94.5 -39t165.5 -46.5 q127 -31 212 -64.5t137.5 -71.5t75 -81t22.5 -92q0 -100 -86 -165t-242 -81v-12q205 -72 205 -248q0 -121 -102.5 -195t-307.5 -74q-150 0 -263.5 29t-229.5 94l106 178q104 -57 202.5 -82.5t196.5 -25.5q74 0 112 22.5t38 59.5q0 23 -9 42t-41 37.5t-93.5 39t-165.5 47.5 q-127 31 -213 64.5t-138.5 71.5t-74 81t-21.5 92zM276 774q0 -53 56.5 -93t187.5 -77q111 -31 221 -31q98 0 156.5 33t58.5 94q0 53 -56 93.5t-189 76.5q-106 31 -219 31q-98 0 -157 -32.5t-59 -94.5z" />
<glyph unicode="&#xa8;" d="M184 1212v258h246v-258h-246zM594 1212v258h246v-258h-246z" />
<glyph unicode="&#xa9;" horiz-adv-x="1679" d="M78 735q0 164 58.5 303.5t160.5 241.5t241.5 160.5t303.5 58.5t302 -57.5t240.5 -159.5t160 -240.5t57.5 -302.5t-58.5 -303t-161 -241.5t-242 -161t-302.5 -58.5q-162 0 -301.5 57.5t-241.5 160t-159.5 241.5t-57.5 301zM168 739q0 -147 50 -273t139 -218t213 -143.5 t272 -51.5q147 0 270 51.5t212 142.5t138 216t49 272t-50 273.5t-139 218.5t-213 143t-271 51t-270.5 -51t-212.5 -142t-138 -216t-49 -273zM496 719v57q0 205 94 310.5t248 105.5q152 0 225.5 -79t95.5 -206l-196 -47q-16 92 -44 133t-81 41q-70 0 -99.5 -63.5 t-29.5 -169.5v-107q0 -104 29.5 -168.5t101.5 -64.5q57 0 86.5 42t46.5 134l188 -45q-25 -141 -104.5 -216t-218.5 -75q-154 0 -248 106.5t-94 311.5z" />
<glyph unicode="&#xaa;" horiz-adv-x="827" d="M86 934q0 111 98.5 175.5t307.5 72.5v63q0 96 -93 96q-43 0 -94 -15t-121 -54l-57 127q78 41 149.5 63.5t157.5 22.5q135 0 194.5 -55.5t59.5 -180.5v-352q0 -39 13.5 -55.5t54.5 -20.5v-80q-119 -2 -178.5 26t-77.5 81q-94 -109 -215 -109q-84 0 -141.5 49.5 t-57.5 145.5zM92 500v112h645v-112h-645zM279 958q0 -45 25.5 -69.5t68.5 -24.5q68 0 119 56v182q-121 -10 -167 -48t-46 -96z" />
<glyph unicode="&#xab;" horiz-adv-x="1038" d="M35 545l332 401h165l-184 -401l184 -402h-165zM483 545l332 401h166l-184 -401l184 -402h-166z" />
<glyph unicode="&#xac;" d="M55 424l367 25l-316 280v16l316 281l-367 25l92 274l312 -199l-94 349h294l-94 -349l312 199l92 -274l-367 -25l316 -281v-16l-316 -280l367 -25l-92 -274l-312 198l94 -348h-294l94 348l-312 -198zM365 737l147 -260l147 260l-147 260z" />
<glyph unicode="&#xad;" horiz-adv-x="692" d="M68 457v266h557v-266h-557z" />
<glyph unicode="&#xae;" horiz-adv-x="1048" d="M68 1030q0 98 34.5 182t96 145.5t145.5 96.5t182 35t181.5 -35t143.5 -95.5t95 -144.5t35 -182t-35 -182t-96.5 -145.5t-145 -96.5t-182.5 -35q-98 0 -181 35t-143.5 95.5t-95 144.5t-34.5 182zM125 1032q0 -88 29.5 -162.5t83 -129t127 -85t161.5 -30.5t161 30.5t125 85 t82 128t30 161.5t-30 163t-83 130t-127 86t-162 31t-160.5 -31t-125 -85t-82 -129t-29.5 -163zM344 778v525h195q88 0 139 -39t51 -119q0 -109 -100 -144l127 -223h-138l-114 205h-31v-205h-129zM465 1069h59q80 0 80 74q0 70 -80 69h-59v-143z" />
<glyph unicode="&#xaf;" d="M207 1276v182h610v-182h-610z" />
<glyph unicode="&#xb0;" horiz-adv-x="819" d="M86 1163q0 70 24.5 128.5t67.5 101.5t102.5 66.5t129.5 23.5t129 -23.5t102 -66.5t67.5 -101.5t24.5 -128.5t-24.5 -129t-67.5 -102t-102.5 -66.5t-128.5 -23.5q-70 0 -129.5 23.5t-102.5 66.5t-67.5 102.5t-24.5 128.5zM238 1163q0 -82 47 -135t125 -53t125 53t47 135 q0 80 -47.5 133.5t-124.5 53.5q-78 0 -125 -53.5t-47 -133.5z" />
<glyph unicode="&#xb1;" d="M55 424l367 25l-316 280v16l316 281l-367 25l92 274l312 -199l-94 349h294l-94 -349l312 199l92 -274l-367 -25l316 -281v-16l-316 -280l367 -25l-92 -274l-312 198l94 -348h-294l94 348l-312 -198zM365 737l147 -260l147 260l-147 260z" />
<glyph unicode="&#xb2;" d="M55 424l367 25l-316 280v16l316 281l-367 25l92 274l312 -199l-94 349h294l-94 -349l312 199l92 -274l-367 -25l316 -281v-16l-316 -280l367 -25l-92 -274l-312 198l94 -348h-294l94 348l-312 -198zM365 737l147 -260l147 260l-147 260z" />
<glyph unicode="&#xb3;" d="M55 424l367 25l-316 280v16l316 281l-367 25l92 274l312 -199l-94 349h294l-94 -349l312 199l92 -274l-367 -25l316 -281v-16l-316 -280l367 -25l-92 -274l-312 198l94 -348h-294l94 348l-312 -198zM365 737l147 -260l147 260l-147 260z" />
<glyph unicode="&#xb4;" d="M291 1212l160 310h348l-307 -310h-201z" />
<glyph unicode="&#xb5;" d="M55 424l367 25l-316 280v16l316 281l-367 25l92 274l312 -199l-94 349h294l-94 -349l312 199l92 -274l-367 -25l316 -281v-16l-316 -280l367 -25l-92 -274l-312 198l94 -348h-294l94 348l-312 -198zM365 737l147 -260l147 260l-147 260z" />
<glyph unicode="&#xb6;" horiz-adv-x="1134" d="M51 1053q0 205 137.5 313.5t374.5 108.5h436v-1475h-133v1352h-178v-1352h-131v635q-248 4 -377 114.5t-129 303.5z" />
<glyph unicode="&#xb7;" horiz-adv-x="483" d="M63 569q0 78 50.5 128.5t128.5 50.5t128 -50.5t50 -128.5t-50.5 -128t-127.5 -50q-78 0 -128.5 50.5t-50.5 127.5z" />
<glyph unicode="&#xb8;" d="M281 -328q100 0 167.5 6.5t108.5 18.5t58.5 28.5t17.5 36.5q0 45 -72 45q-51 0 -112 -22l-66 41l131 174h98l-69 -94q37 10 100 10q78 0 126 -29t48 -88q0 -100 -125 -147t-411 -43v63z" />
<glyph unicode="&#xb9;" d="M55 424l367 25l-316 280v16l316 281l-367 25l92 274l312 -199l-94 349h294l-94 -349l312 199l92 -274l-367 -25l316 -281v-16l-316 -280l367 -25l-92 -274l-312 198l94 -348h-294l94 348l-312 -198zM365 737l147 -260l147 260l-147 260z" />
<glyph unicode="&#xba;" horiz-adv-x="827" d="M86 1110q0 180 86 279.5t242 99.5q154 0 240.5 -99.5t86.5 -279.5t-87 -279.5t-240 -99.5q-156 0 -242 99.5t-86 279.5zM100 500v112h627v-112h-627zM297 1112q0 -129 28.5 -189.5t88.5 -60.5q59 0 87.5 58.5t28.5 187.5t-28.5 189.5t-87.5 60.5t-88 -58.5t-29 -187.5z " />
<glyph unicode="&#xbb;" horiz-adv-x="1038" d="M59 143l183 402l-183 401h166l332 -401l-332 -402h-166zM506 143l184 402l-184 401h168l330 -401l-330 -402h-168z" />
<glyph unicode="&#xbc;" d="M55 424l367 25l-316 280v16l316 281l-367 25l92 274l312 -199l-94 349h294l-94 -349l312 199l92 -274l-367 -25l316 -281v-16l-316 -280l367 -25l-92 -274l-312 198l94 -348h-294l94 348l-312 -198zM365 737l147 -260l147 260l-147 260z" />
<glyph unicode="&#xbd;" d="M55 424l367 25l-316 280v16l316 281l-367 25l92 274l312 -199l-94 349h294l-94 -349l312 199l92 -274l-367 -25l316 -281v-16l-316 -280l367 -25l-92 -274l-312 198l94 -348h-294l94 348l-312 -198zM365 737l147 -260l147 260l-147 260z" />
<glyph unicode="&#xbe;" d="M55 424l367 25l-316 280v16l316 281l-367 25l92 274l312 -199l-94 349h294l-94 -349l312 199l92 -274l-367 -25l316 -281v-16l-316 -280l367 -25l-92 -274l-312 198l94 -348h-294l94 348l-312 -198zM365 737l147 -260l147 260l-147 260z" />
<glyph unicode="&#xbf;" horiz-adv-x="1017" d="M61 352q0 68 13.5 121t42 97t72.5 84t104 81q43 31 74.5 58.5t51 57.5t31 63.5t15.5 78.5h192q8 -76 3 -132t-23.5 -100t-52 -83t-84.5 -82q-68 -59 -98.5 -111.5t-30.5 -117.5q0 -68 37.5 -111t109.5 -43q74 0 129 48t111 177l235 -106q-35 -86 -78 -152.5t-101 -111.5 t-135 -69t-175 -24q-213 0 -328 104.5t-115 272.5zM393 1319q0 72 49.5 121t120.5 49q72 0 121 -49t49 -121t-49 -121t-121 -49t-121 49t-49 121z" />
<glyph unicode="&#xc0;" horiz-adv-x="1406" d="M33 0l459 1481h423l459 -1481h-334l-92 334h-499l-93 -334h-323zM303 1874h348l160 -310h-201zM498 545h401l-194 696h-13z" />
<glyph unicode="&#xc1;" horiz-adv-x="1406" d="M33 0l459 1481h423l459 -1481h-334l-92 334h-499l-93 -334h-323zM498 545h401l-194 696h-13zM594 1564l160 310h348l-307 -310h-201z" />
<glyph unicode="&#xc2;" horiz-adv-x="1406" d="M33 0l459 1481h423l459 -1481h-334l-92 334h-499l-93 -334h-323zM356 1546l231 340h230l231 -340h-149l-199 172l-199 -172h-145zM498 545h401l-194 696h-13z" />
<glyph unicode="&#xc3;" horiz-adv-x="1406" d="M33 0l459 1481h423l459 -1481h-334l-92 334h-499l-93 -334h-323zM350 1566q-8 160 40 233t152 73q49 0 91 -17.5t78 -37t68 -37t58 -17.5q37 0 53.5 24.5t18.5 80.5h145q8 -160 -40 -233t-152 -73q-49 0 -91 17.5t-78 37t-66.5 37t-59.5 17.5q-37 0 -53.5 -24.5 t-18.5 -80.5h-145zM498 545h401l-194 696h-13z" />
<glyph unicode="&#xc4;" horiz-adv-x="1406" d="M33 0l459 1481h423l459 -1481h-334l-92 334h-499l-93 -334h-323zM374 1564v258h246v-258h-246zM498 545h401l-194 696h-13zM784 1564v258h246v-258h-246z" />
<glyph unicode="&#xc5;" horiz-adv-x="1406" d="M33 0l459 1481h423l459 -1481h-334l-92 334h-499l-93 -334h-323zM446 1763q0 92 67.5 148.5t188.5 56.5t188.5 -56.5t67.5 -148.5q0 -94 -67.5 -150.5t-188.5 -56.5t-188.5 56.5t-67.5 150.5zM498 545h401l-194 696h-13zM598 1763q0 -47 28.5 -79t75.5 -32t75.5 32 t28.5 79t-28.5 77.5t-75.5 30.5t-75.5 -30.5t-28.5 -77.5z" />
<glyph unicode="&#xc6;" horiz-adv-x="1964" d="M6 0l711 1475h1163v-254h-614v-340h456v-240h-456v-387h639v-254h-955v334h-465l-153 -334h-326zM575 545h375v690h-51z" />
<glyph unicode="&#xc7;" horiz-adv-x="1247" d="M80 688v98q0 172 41 305.5t116.5 223.5t181 137t236.5 47q127 0 219.5 -36t157 -98t103.5 -150.5t57 -192.5l-313 -74q-25 158 -75 230.5t-149 72.5q-125 0 -181 -116.5t-56 -307.5v-178q0 -94 14 -173t43 -135t75 -87t109 -31q102 0 155.5 75t82.5 232l301 -71 q-41 -223 -164 -348t-342 -136l-51 -69q41 10 100 10q78 0 126 -28.5t48 -88.5q0 -100 -124.5 -147t-411.5 -43v63q100 0 167.5 6.5t109.5 18.5t59.5 28.5t17.5 36.5q0 45 -71 45q-55 0 -113 -22l-68 41l115 151q-117 10 -212 61.5t-162.5 141.5t-104.5 218t-37 290z" />
<glyph unicode="&#xc8;" horiz-adv-x="1153" d="M119 0v1475h950v-254h-627v-340h469v-240h-469v-387h652v-254h-975zM235 1874h348l160 -310h-201z" />
<glyph unicode="&#xc9;" horiz-adv-x="1153" d="M119 0v1475h950v-254h-627v-340h469v-240h-469v-387h652v-254h-975zM428 1564l160 310h348l-307 -310h-201z" />
<glyph unicode="&#xca;" horiz-adv-x="1153" d="M119 0v1475h950v-254h-627v-340h469v-240h-469v-387h652v-254h-975zM238 1560l231 340h230l231 -340h-149l-199 172l-199 -172h-145z" />
<glyph unicode="&#xcb;" horiz-adv-x="1153" d="M119 0v1475h950v-254h-627v-340h469v-240h-469v-387h652v-254h-975zM256 1564v258h246v-258h-246zM666 1564v258h246v-258h-246z" />
<glyph unicode="&#xcc;" horiz-adv-x="890" d="M63 1874h348l160 -310h-201zM82 0v125h201v1225h-201v125h729v-125h-201v-1225h201v-125h-729z" />
<glyph unicode="&#xcd;" horiz-adv-x="890" d="M82 0v125h201v1225h-201v125h729v-125h-201v-1225h201v-125h-729zM320 1564l160 310h348l-307 -310h-201z" />
<glyph unicode="&#xce;" horiz-adv-x="890" d="M82 0v125h201v1225h-201v125h729v-125h-201v-1225h201v-125h-729zM100 1560l231 340h230l231 -340h-149l-199 172l-199 -172h-145z" />
<glyph unicode="&#xcf;" horiz-adv-x="890" d="M82 0v125h201v1225h-201v125h729v-125h-201v-1225h201v-125h-729zM118 1564v258h246v-258h-246zM528 1564v258h246v-258h-246z" />
<glyph unicode="&#xd0;" horiz-adv-x="1386" d="M41 635v254h158v586h493q143 0 258 -45.5t196 -133.5t124 -219t43 -301v-76q0 -172 -44 -302t-125 -219t-195.5 -134t-258.5 -45h-491v635h-158zM506 248h176q291 0 291 422v133q0 424 -295 424h-172v-338h209v-254h-209v-387z" />
<glyph unicode="&#xd1;" horiz-adv-x="1337" d="M119 0v1475h332l458 -906h11v906h303v-1475h-301l-490 961h-10v-961h-303zM314 1566q-8 160 40 233t152 73q49 0 91 -17.5t78 -37t68 -37t58 -17.5q37 0 53.5 24.5t18.5 80.5h145q8 -160 -40 -233t-152 -73q-49 0 -91 17.5t-78 37t-66.5 37t-59.5 17.5q-37 0 -53.5 -24.5 t-18.5 -80.5h-145z" />
<glyph unicode="&#xd2;" horiz-adv-x="1323" d="M80 688v98q0 172 41 305.5t116.5 223.5t183 137t241.5 47q133 0 239.5 -46t183 -137t117.5 -224.5t41 -305.5v-98q0 -172 -41 -305t-117.5 -223t-183 -137.5t-239.5 -47.5t-241 46.5t-183.5 137.5t-116.5 224t-41 305zM272 1895h348l160 -310h-201zM418 649 q0 -203 59.5 -314.5t184.5 -111.5t184 110.5t59 313.5v178q0 203 -59.5 314.5t-183.5 111.5q-125 0 -184.5 -111.5t-59.5 -312.5v-178z" />
<glyph unicode="&#xd3;" horiz-adv-x="1323" d="M80 688v98q0 172 41 305.5t116.5 223.5t183 137t241.5 47q133 0 239.5 -46t183 -137t117.5 -224.5t41 -305.5v-98q0 -172 -41 -305t-117.5 -223t-183 -137.5t-239.5 -47.5t-241 46.5t-183.5 137.5t-116.5 224t-41 305zM418 649q0 -203 59.5 -314.5t184.5 -111.5 t184 110.5t59 313.5v178q0 203 -59.5 314.5t-183.5 111.5q-125 0 -184.5 -111.5t-59.5 -312.5v-178zM543 1585l160 310h348l-307 -310h-201z" />
<glyph unicode="&#xd4;" horiz-adv-x="1323" d="M80 688v98q0 172 41 305.5t116.5 223.5t183 137t241.5 47q133 0 239.5 -46t183 -137t117.5 -224.5t41 -305.5v-98q0 -172 -41 -305t-117.5 -223t-183 -137.5t-239.5 -47.5t-241 46.5t-183.5 137.5t-116.5 224t-41 305zM316 1560l231 340h230l231 -340h-149l-199 172 l-199 -172h-145zM418 649q0 -203 59.5 -314.5t184.5 -111.5t184 110.5t59 313.5v178q0 203 -59.5 314.5t-183.5 111.5q-125 0 -184.5 -111.5t-59.5 -312.5v-178z" />
<glyph unicode="&#xd5;" horiz-adv-x="1323" d="M80 688v98q0 172 41 305.5t116.5 223.5t183 137t241.5 47q133 0 239.5 -46t183 -137t117.5 -224.5t41 -305.5v-98q0 -172 -41 -305t-117.5 -223t-183 -137.5t-239.5 -47.5t-241 46.5t-183.5 137.5t-116.5 224t-41 305zM305 1587q-8 160 40 233t152 73q49 0 91 -17.5 t78 -37t68 -37t58 -17.5q37 0 53.5 24.5t18.5 80.5h145q8 -160 -40 -233t-152 -73q-49 0 -91 17.5t-78 37t-66.5 37t-59.5 17.5q-37 0 -53.5 -24.5t-18.5 -80.5h-145zM418 649q0 -203 59.5 -314.5t184.5 -111.5t184 110.5t59 313.5v178q0 203 -59.5 314.5t-183.5 111.5 q-125 0 -184.5 -111.5t-59.5 -312.5v-178z" />
<glyph unicode="&#xd6;" horiz-adv-x="1323" d="M80 688v98q0 172 41 305.5t116.5 223.5t183 137t241.5 47q133 0 239.5 -46t183 -137t117.5 -224.5t41 -305.5v-98q0 -172 -41 -305t-117.5 -223t-183 -137.5t-239.5 -47.5t-241 46.5t-183.5 137.5t-116.5 224t-41 305zM334 1574v258h246v-258h-246zM418 649 q0 -203 59.5 -314.5t184.5 -111.5t184 110.5t59 313.5v178q0 203 -59.5 314.5t-183.5 111.5q-125 0 -184.5 -111.5t-59.5 -312.5v-178zM744 1574v258h246v-258h-246z" />
<glyph unicode="&#xd7;" d="M55 424l367 25l-316 280v16l316 281l-367 25l92 274l312 -199l-94 349h294l-94 -349l312 199l92 -274l-367 -25l316 -281v-16l-316 -280l367 -25l-92 -274l-312 198l94 -348h-294l94 348l-312 -198zM365 737l147 -260l147 260l-147 260z" />
<glyph unicode="&#xd8;" horiz-adv-x="1323" d="M80 -195l180 328q-88 92 -134 230.5t-46 324.5v98q0 172 41 305.5t116.5 223.5t183 137t241.5 47q156 0 272 -67l121 241h188l-182 -330q88 -92 135 -230t47 -327v-98q0 -172 -41 -305t-117.5 -223t-183 -137.5t-239.5 -47.5q-78 0 -147 17.5t-128 50.5l-119 -238h-188z M401 649q0 -61 9.5 -113.5t29.5 -93.5l379 756q-61 66 -157 66q-129 0 -195 -114t-66 -323v-178zM502 276q66 -66 160 -65q129 0 194.5 112.5t65.5 323.5v178q0 125 -41 211z" />
<glyph unicode="&#xd9;" horiz-adv-x="1296" d="M106 541v934h328v-943q0 -160 59.5 -229.5t163.5 -69.5t163 68t59 227v947h311v-934q0 -150 -39 -256.5t-110.5 -175t-171 -101.5t-222.5 -33t-222 33t-170 101.5t-110 175t-39 256.5zM270 1866h348l160 -310h-201z" />
<glyph unicode="&#xda;" horiz-adv-x="1296" d="M106 541v934h328v-943q0 -160 59.5 -229.5t163.5 -69.5t163 68t59 227v947h311v-934q0 -150 -39 -256.5t-110.5 -175t-171 -101.5t-222.5 -33t-222 33t-170 101.5t-110 175t-39 256.5zM533 1556l160 310h348l-307 -310h-201z" />
<glyph unicode="&#xdb;" horiz-adv-x="1296" d="M106 541v934h328v-943q0 -160 59.5 -229.5t163.5 -69.5t163 68t59 227v947h311v-934q0 -150 -39 -256.5t-110.5 -175t-171 -101.5t-222.5 -33t-222 33t-170 101.5t-110 175t-39 256.5zM309 1560l231 340h230l231 -340h-149l-199 172l-199 -172h-145z" />
<glyph unicode="&#xdc;" horiz-adv-x="1296" d="M106 541v934h328v-943q0 -160 59.5 -229.5t163.5 -69.5t163 68t59 227v947h311v-934q0 -150 -39 -256.5t-110.5 -175t-171 -101.5t-222.5 -33t-222 33t-170 101.5t-110 175t-39 256.5zM327 1564v258h246v-258h-246zM737 1564v258h246v-258h-246z" />
<glyph unicode="&#xdd;" horiz-adv-x="1316" d="M18 1475h351l305 -605l303 605h323l-477 -893v-582h-327v575zM531 1556l160 310h348l-307 -310h-201z" />
<glyph unicode="&#xde;" horiz-adv-x="1212" d="M119 0v1475h327v-263h185q246 0 391 -108.5t145 -333.5q0 -236 -143 -351.5t-410 -115.5h-168v-303h-327zM434 539h166q119 0 179.5 58t60.5 169q0 215 -244 215h-162v-442z" />
<glyph unicode="&#xdf;" horiz-adv-x="1251" d="M104 0v1071q0 242 136.5 362.5t365.5 120.5q231 0 352 -102t121 -266q0 -141 -65.5 -217t-159.5 -113v-12q68 -25 129 -63t108.5 -92t75 -127t27.5 -165q0 -205 -112.5 -308t-313.5 -103q-86 0 -138 13t-98 36l33 196q33 -20 66 -29t80 -9q78 0 129 54t51 154 q0 141 -87 227.5t-245 116.5v189q117 12 170 75.5t53 155.5q0 82 -46 134.5t-138 52.5q-96 0 -140 -64.5t-44 -181.5v-1106h-310z" />
<glyph unicode="&#xe0;" horiz-adv-x="1073" d="M45 276q0 166 148.5 261.5t465.5 107.5v98q0 150 -145 150q-66 0 -141.5 -23.5t-179.5 -78.5l-82 182q115 59 221 94t235 35q199 0 288 -82t89 -270v-529q0 -59 21.5 -84.5t81.5 -34.5v-112q-174 0 -263.5 43t-113.5 119h-11q-78 -84 -153.5 -124t-167.5 -40 q-59 0 -112.5 18.5t-93.5 55t-63.5 91t-23.5 123.5zM162 1522h348l160 -310h-201zM326 313q0 -70 40 -107.5t107 -37.5q102 0 186 86v276q-94 -6 -157.5 -24.5t-102.5 -47t-56 -65.5t-17 -80z" />
<glyph unicode="&#xe1;" horiz-adv-x="1073" d="M45 276q0 166 148.5 261.5t465.5 107.5v98q0 150 -145 150q-66 0 -141.5 -23.5t-179.5 -78.5l-82 182q115 59 221 94t235 35q199 0 288 -82t89 -270v-529q0 -59 21.5 -84.5t81.5 -34.5v-112q-174 0 -263.5 43t-113.5 119h-11q-78 -84 -153.5 -124t-167.5 -40 q-59 0 -112.5 18.5t-93.5 55t-63.5 91t-23.5 123.5zM326 313q0 -70 40 -107.5t107 -37.5q102 0 186 86v276q-94 -6 -157.5 -24.5t-102.5 -47t-56 -65.5t-17 -80zM389 1212l160 310h348l-307 -310h-201z" />
<glyph unicode="&#xe2;" horiz-adv-x="1073" d="M45 276q0 166 148.5 261.5t465.5 107.5v98q0 150 -145 150q-66 0 -141.5 -23.5t-179.5 -78.5l-82 182q115 59 221 94t235 35q199 0 288 -82t89 -270v-529q0 -59 21.5 -84.5t81.5 -34.5v-112q-174 0 -263.5 43t-113.5 119h-11q-78 -84 -153.5 -124t-167.5 -40 q-59 0 -112.5 18.5t-93.5 55t-63.5 91t-23.5 123.5zM180 1208l231 340h230l231 -340h-149l-199 172l-199 -172h-145zM326 313q0 -70 40 -107.5t107 -37.5q102 0 186 86v276q-94 -6 -157.5 -24.5t-102.5 -47t-56 -65.5t-17 -80z" />
<glyph unicode="&#xe3;" horiz-adv-x="1073" d="M45 276q0 166 148.5 261.5t465.5 107.5v98q0 150 -145 150q-66 0 -141.5 -23.5t-179.5 -78.5l-82 182q115 59 221 94t235 35q199 0 288 -82t89 -270v-529q0 -59 21.5 -84.5t81.5 -34.5v-112q-174 0 -263.5 43t-113.5 119h-11q-78 -84 -153.5 -124t-167.5 -40 q-59 0 -112.5 18.5t-93.5 55t-63.5 91t-23.5 123.5zM178 1214q-8 160 40 233t152 73q49 0 91 -17.5t78 -37t68 -37t58 -17.5q37 0 53.5 24.5t18.5 80.5h145q8 -160 -40 -233t-152 -73q-49 0 -91 17.5t-78 37t-66.5 37t-59.5 17.5q-37 0 -53.5 -24.5t-18.5 -80.5h-145z M326 313q0 -70 40 -107.5t107 -37.5q102 0 186 86v276q-94 -6 -157.5 -24.5t-102.5 -47t-56 -65.5t-17 -80z" />
<glyph unicode="&#xe4;" horiz-adv-x="1073" d="M45 276q0 166 148.5 261.5t465.5 107.5v98q0 150 -145 150q-66 0 -141.5 -23.5t-179.5 -78.5l-82 182q115 59 221 94t235 35q199 0 288 -82t89 -270v-529q0 -59 21.5 -84.5t81.5 -34.5v-112q-174 0 -263.5 43t-113.5 119h-11q-78 -84 -153.5 -124t-167.5 -40 q-59 0 -112.5 18.5t-93.5 55t-63.5 91t-23.5 123.5zM202 1212v258h246v-258h-246zM326 313q0 -70 40 -107.5t107 -37.5q102 0 186 86v276q-94 -6 -157.5 -24.5t-102.5 -47t-56 -65.5t-17 -80zM612 1212v258h246v-258h-246z" />
<glyph unicode="&#xe5;" horiz-adv-x="1073" d="M45 276q0 166 148.5 261.5t465.5 107.5v98q0 150 -145 150q-66 0 -141.5 -23.5t-179.5 -78.5l-82 182q115 59 221 94t235 35q199 0 288 -82t89 -270v-529q0 -59 21.5 -84.5t81.5 -34.5v-112q-174 0 -263.5 43t-113.5 119h-11q-78 -84 -153.5 -124t-167.5 -40 q-59 0 -112.5 18.5t-93.5 55t-63.5 91t-23.5 123.5zM274 1405q0 92 67.5 148.5t188.5 56.5t188.5 -56.5t67.5 -148.5q0 -94 -67.5 -150.5t-188.5 -56.5t-188.5 56.5t-67.5 150.5zM326 313q0 -70 40 -107.5t107 -37.5q102 0 186 86v276q-94 -6 -157.5 -24.5t-102.5 -47 t-56 -65.5t-17 -80zM426 1405q0 -47 28.5 -79t75.5 -32t75.5 32t28.5 79t-28.5 77.5t-75.5 30.5t-75.5 -30.5t-28.5 -77.5z" />
<glyph unicode="&#xe6;" horiz-adv-x="1603" d="M39 276q0 166 147.5 260.5t458.5 108.5v107q0 68 -36 104.5t-107 36.5q-61 0 -137 -23.5t-181 -78.5l-82 182q117 59 216.5 94t216.5 35q121 0 184 -43t88 -121h14q45 82 116 127t175 45q207 0 319.5 -144.5t112.5 -400.5v-92h-610q8 -156 72.5 -218t169.5 -62 q72 0 143.5 23.5t157.5 74.5l75 -189q-53 -31 -102 -53t-99.5 -36.5t-104.5 -21.5t-120 -7q-129 0 -225 48t-158 138q-84 -84 -177 -133t-210 -49q-143 0 -230 73.5t-87 214.5zM317 319q0 -76 42 -113.5t118 -37.5q49 0 104.5 24.5t108.5 71.5q-45 104 -45 246v20 q-180 -12 -254 -69.5t-74 -141.5zM932 598h325q-4 184 -42.5 259t-116.5 75q-80 0 -121 -79t-45 -255z" />
<glyph unicode="&#xe7;" horiz-adv-x="1005" d="M61 522v45q0 125 33 225.5t95.5 171t150.5 108.5t199 38q354 0 422 -348l-275 -55q-18 104 -51 153t-100 49q-84 0 -125 -84t-41 -270v-20q0 -186 42 -270.5t128 -84.5q59 0 96 43t61 152l269 -56q-39 -164 -138.5 -246.5t-257.5 -90.5l-55 -76q41 10 100 10 q78 0 126 -28.5t48 -88.5q0 -100 -124.5 -147t-411.5 -43v63q100 0 167.5 6.5t108.5 18.5t58.5 28.5t17.5 36.5q0 45 -72 45q-51 0 -112 -22l-66 41l119 156q-193 18 -302.5 160.5t-109.5 379.5z" />
<glyph unicode="&#xe8;" horiz-adv-x="1019" d="M61 526v41q0 125 33 225.5t92.5 171t142.5 108.5t185 38q211 0 329 -144.5t118 -400.5v-92h-613q8 -156 72.5 -218t169.5 -62q72 0 144.5 23.5t158.5 74.5l76 -189q-53 -31 -102.5 -53t-99.5 -36.5t-104.5 -21.5t-119.5 -7q-227 0 -354.5 140t-127.5 402zM127 1522h348 l160 -310h-201zM348 598h326q-6 184 -44 259t-116 75q-80 0 -121 -79t-45 -255z" />
<glyph unicode="&#xe9;" horiz-adv-x="1019" d="M61 526v41q0 125 33 225.5t92.5 171t142.5 108.5t185 38q211 0 329 -144.5t118 -400.5v-92h-613q8 -156 72.5 -218t169.5 -62q72 0 144.5 23.5t158.5 74.5l76 -189q-53 -31 -102.5 -53t-99.5 -36.5t-104.5 -21.5t-119.5 -7q-227 0 -354.5 140t-127.5 402zM348 598h326 q-6 184 -44 259t-116 75q-80 0 -121 -79t-45 -255zM371 1212l160 310h348l-307 -310h-201z" />
<glyph unicode="&#xea;" horiz-adv-x="1019" d="M61 526v41q0 125 33 225.5t92.5 171t142.5 108.5t185 38q211 0 329 -144.5t118 -400.5v-92h-613q8 -156 72.5 -218t169.5 -62q72 0 144.5 23.5t158.5 74.5l76 -189q-53 -31 -102.5 -53t-99.5 -36.5t-104.5 -21.5t-119.5 -7q-227 0 -354.5 140t-127.5 402zM166 1204 l231 340h230l231 -340h-149l-199 172l-199 -172h-145zM348 598h326q-6 184 -44 259t-116 75q-80 0 -121 -79t-45 -255z" />
<glyph unicode="&#xeb;" horiz-adv-x="1019" d="M61 526v41q0 125 33 225.5t92.5 171t142.5 108.5t185 38q211 0 329 -144.5t118 -400.5v-92h-613q8 -156 72.5 -218t169.5 -62q72 0 144.5 23.5t158.5 74.5l76 -189q-53 -31 -102.5 -53t-99.5 -36.5t-104.5 -21.5t-119.5 -7q-227 0 -354.5 140t-127.5 402zM184 1212v258 h246v-258h-246zM348 598h326q-6 184 -44 259t-116 75q-80 0 -121 -79t-45 -255zM594 1212v258h246v-258h-246z" />
<glyph unicode="&#xec;" horiz-adv-x="536" d="M-123 1522h348l160 -310h-201zM115 0v1090h307v-1090h-307z" />
<glyph unicode="&#xed;" horiz-adv-x="536" d="M115 0v1090h307v-1090h-307zM152 1212l160 310h348l-307 -310h-201z" />
<glyph unicode="&#xee;" horiz-adv-x="536" d="M-78 1208l231 340h230l231 -340h-149l-199 172l-199 -172h-145zM115 0v1090h307v-1090h-307z" />
<glyph unicode="&#xef;" horiz-adv-x="536" d="M-60 1212v258h246v-258h-246zM115 0v1090h307v-1090h-307zM350 1212v258h246v-258h-246z" />
<glyph unicode="&#xf0;" horiz-adv-x="1087" d="M61 522v45q0 252 105.5 390.5t292.5 138.5q102 0 166.5 -48.5t117.5 -134.5h11q-16 102 -68.5 198.5t-130.5 182.5l-248 -106v112l166 74q-70 63 -143 111l248 76q29 -25 56.5 -51.5t53.5 -55.5l256 107v-113l-178 -76q115 -137 185.5 -319.5t70.5 -425.5v-90 q0 -262 -126 -409.5t-355 -147.5q-113 0 -202 37.5t-150.5 107.5t-94.5 171t-33 226zM369 522q0 -186 42 -271t130 -85t131 84t43 270v49q0 186 -43 270.5t-131 84.5t-130 -84t-42 -271v-47z" />
<glyph unicode="&#xf1;" horiz-adv-x="1107" d="M104 0v1059l310 49v-242h8q92 119 174 178.5t186 59.5q115 0 174.5 -70.5t59.5 -208.5v-825h-307v754q0 133 -113 133q-88 0 -182 -117v-770h-310zM209 1214q-8 160 40 233t152 73q49 0 91 -17.5t78 -37t68 -37t58 -17.5q37 0 53.5 24.5t18.5 80.5h145q8 -160 -40 -233 t-152 -73q-49 0 -91 17.5t-78 37t-66.5 37t-59.5 17.5q-37 0 -53.5 -24.5t-18.5 -80.5h-145z" />
<glyph unicode="&#xf2;" horiz-adv-x="1083" d="M61 522v45q0 125 33 225.5t94.5 171t150.5 108.5t202 38t201.5 -38t151 -107.5t95.5 -170t33 -225.5v-47q0 -125 -33 -225t-95.5 -171t-151.5 -108.5t-201 -37.5q-113 0 -202 37.5t-150.5 107.5t-94.5 171t-33 226zM155 1522h348l160 -310h-201zM369 522q0 -186 42 -271 t130 -85t131 84t43 270v49q0 186 -43 270.5t-131 84.5t-130 -84t-42 -271v-47z" />
<glyph unicode="&#xf3;" horiz-adv-x="1083" d="M61 522v45q0 125 33 225.5t94.5 171t150.5 108.5t202 38t201.5 -38t151 -107.5t95.5 -170t33 -225.5v-47q0 -125 -33 -225t-95.5 -171t-151.5 -108.5t-201 -37.5q-113 0 -202 37.5t-150.5 107.5t-94.5 171t-33 226zM369 522q0 -186 42 -271t130 -85t131 84t43 270v49 q0 186 -43 270.5t-131 84.5t-130 -84t-42 -271v-47zM418 1212l160 310h348l-307 -310h-201z" />
<glyph unicode="&#xf4;" horiz-adv-x="1083" d="M61 522v45q0 125 33 225.5t94.5 171t150.5 108.5t202 38t201.5 -38t151 -107.5t95.5 -170t33 -225.5v-47q0 -125 -33 -225t-95.5 -171t-151.5 -108.5t-201 -37.5q-113 0 -202 37.5t-150.5 107.5t-94.5 171t-33 226zM195 1204l231 340h230l231 -340h-149l-199 172 l-199 -172h-145zM369 522q0 -186 42 -271t130 -85t131 84t43 270v49q0 186 -43 270.5t-131 84.5t-130 -84t-42 -271v-47z" />
<glyph unicode="&#xf5;" horiz-adv-x="1083" d="M61 522v45q0 125 33 225.5t94.5 171t150.5 108.5t202 38t201.5 -38t151 -107.5t95.5 -170t33 -225.5v-47q0 -125 -33 -225t-95.5 -171t-151.5 -108.5t-201 -37.5q-113 0 -202 37.5t-150.5 107.5t-94.5 171t-33 226zM185 1214q-8 160 40 233t152 73q49 0 91 -17.5t78 -37 t68 -37t58 -17.5q37 0 53.5 24.5t18.5 80.5h145q8 -160 -40 -233t-152 -73q-49 0 -91 17.5t-78 37t-66.5 37t-59.5 17.5q-37 0 -53.5 -24.5t-18.5 -80.5h-145zM369 522q0 -186 42 -271t130 -85t131 84t43 270v49q0 186 -43 270.5t-131 84.5t-130 -84t-42 -271v-47z" />
<glyph unicode="&#xf6;" horiz-adv-x="1083" d="M61 522v45q0 125 33 225.5t94.5 171t150.5 108.5t202 38t201.5 -38t151 -107.5t95.5 -170t33 -225.5v-47q0 -125 -33 -225t-95.5 -171t-151.5 -108.5t-201 -37.5q-113 0 -202 37.5t-150.5 107.5t-94.5 171t-33 226zM213 1212v258h246v-258h-246zM369 522q0 -186 42 -271 t130 -85t131 84t43 270v49q0 186 -43 270.5t-131 84.5t-130 -84t-42 -271v-47zM623 1212v258h246v-258h-246z" />
<glyph unicode="&#xf7;" horiz-adv-x="1228" d="M78 602v250h1073v-250h-1073zM442 258q0 74 49.5 123t122.5 49q74 0 123 -49t49 -123t-49 -123t-123 -49t-123 49t-49 123zM442 1196q0 74 49.5 123t122.5 49q74 0 123 -49t49 -123t-49 -123t-123 -49t-123 49t-49 123z" />
<glyph unicode="&#xf8;" horiz-adv-x="1083" d="M61 -195l160 285q-78 70 -119 179.5t-41 252.5v45q0 125 33 225.5t94.5 171t150.5 108.5t202 38q109 0 200 -41l105 215h176l-160 -285q78 -72 119 -180t41 -250v-47q0 -125 -33 -225t-95.5 -171t-151.5 -108.5t-201 -37.5q-106 0 -199 40l-104 -215h-177zM346 522 q0 -113 35 -188l272 555q-47 47 -112 47q-90 0 -142.5 -86t-52.5 -281v-47zM430 201q43 -45 111 -45q90 0 143 85t53 279v49q0 109 -35 185z" />
<glyph unicode="&#xf9;" horiz-adv-x="1107" d="M92 266v824h309v-754q0 -133 111 -133q90 0 184 116v771h308v-1059l-308 -47v239h-10q-92 -119 -174 -177t-184 -58q-115 0 -175.5 69.5t-60.5 208.5zM178 1522h348l160 -310h-201z" />
<glyph unicode="&#xfa;" horiz-adv-x="1107" d="M92 266v824h309v-754q0 -133 111 -133q90 0 184 116v771h308v-1059l-308 -47v239h-10q-92 -119 -174 -177t-184 -58q-115 0 -175.5 69.5t-60.5 208.5zM412 1212l160 310h348l-307 -310h-201z" />
<glyph unicode="&#xfb;" horiz-adv-x="1107" d="M92 266v824h309v-754q0 -133 111 -133q90 0 184 116v771h308v-1059l-308 -47v239h-10q-92 -119 -174 -177t-184 -58q-115 0 -175.5 69.5t-60.5 208.5zM207 1208l231 340h230l231 -340h-149l-199 172l-199 -172h-145z" />
<glyph unicode="&#xfc;" horiz-adv-x="1107" d="M92 266v824h309v-754q0 -133 111 -133q90 0 184 116v771h308v-1059l-308 -47v239h-10q-92 -119 -174 -177t-184 -58q-115 0 -175.5 69.5t-60.5 208.5zM225 1212v258h246v-258h-246zM635 1212v258h246v-258h-246z" />
<glyph unicode="&#xfd;" horiz-adv-x="1093" d="M27 1090h317l211 -799l211 799h301l-381 -1190q-27 -84 -61.5 -140.5t-80.5 -90.5t-105.5 -48t-137.5 -14q-80 0 -135 11t-109 32v200h62q27 -41 55.5 -61t81.5 -20q100 0 139 98l21 53zM424 1192l160 310h348l-307 -310h-201z" />
<glyph unicode="&#xfe;" horiz-adv-x="1124" d="M104 -385v1886l310 49v-659h8q66 100 133.5 157.5t167.5 57.5q156 0 246 -137.5t90 -399.5v-47q0 -262 -94.5 -400t-241.5 -138q-106 0 -174 56t-127 157h-8v-582h-310zM412 543q0 -176 49 -268.5t127 -92.5q72 0 120 83t48 278q0 201 -48.5 282.5t-119.5 81.5 q-78 0 -127 -92t-49 -272z" />
<glyph unicode="&#xff;" horiz-adv-x="1093" d="M27 1090h317l211 -799l211 799h301l-381 -1190q-27 -84 -61.5 -140.5t-80.5 -90.5t-105.5 -48t-137.5 -14q-80 0 -135 11t-109 32v200h62q27 -41 55.5 -61t81.5 -20q100 0 139 98l21 53zM219 1212v258h246v-258h-246zM629 1212v258h246v-258h-246z" />
<glyph unicode="&#x152;" horiz-adv-x="1847" d="M76 698v76q0 344 170 522.5t479 178.5h1036v-250h-606v-344h451v-240h-451v-391h631v-250h-1065q-309 0 -477 177t-168 521zM408 668q0 -213 86 -319.5t245 -106.5h103v991h-107q-156 0 -241.5 -106.5t-85.5 -319.5v-139z" />
<glyph unicode="&#x153;" horiz-adv-x="1681" d="M61 522v45q0 125 33 225.5t92.5 171t144.5 108.5t189 38q129 0 215 -55.5t127 -155.5h17q41 100 120.5 155.5t196.5 55.5q98 0 177 -37t134.5 -107.5t85 -172t29.5 -228.5v-92h-612q8 -156 72.5 -218t168.5 -62q72 0 144.5 23.5t158.5 74.5l76 -189q-53 -31 -100 -53 t-94 -36.5t-96.5 -21.5t-108.5 -7q-147 0 -226 52t-126 154h-17q-35 -90 -116.5 -150t-217.5 -60q-109 0 -194.5 37.5t-146 107.5t-93.5 171t-33 226zM369 522q0 -186 42 -271t130 -85t131 84t43 270v49q0 186 -43 270.5t-131 84.5t-130 -84t-42 -271v-47zM1010 598h325 q-6 184 -44 259t-115 75q-80 0 -121 -79t-45 -255z" />
<glyph unicode="&#x178;" horiz-adv-x="1316" d="M18 1475h351l305 -605l303 605h323l-477 -893v-582h-327v575zM340 1554v258h246v-258h-246zM750 1554v258h246v-258h-246z" />
<glyph unicode="&#x2c6;" d="M166 1208l231 340h230l231 -340h-149l-199 172l-199 -172h-145z" />
<glyph unicode="&#x2dc;" d="M160 1214q-8 160 40 233t152 73q49 0 91 -17.5t78 -37t68 -37t58 -17.5q37 0 53.5 24.5t18.5 80.5h145q8 -160 -40 -233t-152 -73q-49 0 -91 17.5t-78 37t-66.5 37t-59.5 17.5q-37 0 -53.5 -24.5t-18.5 -80.5h-145z" />
<glyph unicode="&#x2000;" horiz-adv-x="984" />
<glyph unicode="&#x2001;" horiz-adv-x="1968" />
<glyph unicode="&#x2002;" horiz-adv-x="984" />
<glyph unicode="&#x2003;" horiz-adv-x="1968" />
<glyph unicode="&#x2004;" horiz-adv-x="656" />
<glyph unicode="&#x2005;" horiz-adv-x="492" />
<glyph unicode="&#x2006;" horiz-adv-x="328" />
<glyph unicode="&#x2007;" horiz-adv-x="328" />
<glyph unicode="&#x2008;" horiz-adv-x="246" />
<glyph unicode="&#x2009;" horiz-adv-x="393" />
<glyph unicode="&#x200a;" horiz-adv-x="109" />
<glyph unicode="&#x2010;" horiz-adv-x="692" d="M68 457v266h557v-266h-557z" />
<glyph unicode="&#x2011;" horiz-adv-x="692" d="M68 457v266h557v-266h-557z" />
<glyph unicode="&#x2012;" horiz-adv-x="692" d="M68 457v266h557v-266h-557z" />
<glyph unicode="&#x2013;" d="M68 463v254h888v-254h-888z" />
<glyph unicode="&#x2014;" horiz-adv-x="2048" d="M68 463v254h1912v-254h-1912z" />
<glyph unicode="&#x2018;" horiz-adv-x="483" d="M35 1475h330l57 -574h-170z" />
<glyph unicode="&#x2019;" horiz-adv-x="483" d="M61 901l58 574h330l-218 -574h-170z" />
<glyph unicode="&#x201a;" horiz-adv-x="483" d="M53 -236l58 574h327l-215 -574h-170z" />
<glyph unicode="&#x201c;" horiz-adv-x="905" d="M35 1475h323l56 -574h-162zM463 1475h323l56 -574h-162z" />
<glyph unicode="&#x201d;" horiz-adv-x="905" d="M61 901l58 574h321l-215 -574h-164zM489 901l58 574h321l-215 -574h-164z" />
<glyph unicode="&#x201e;" horiz-adv-x="899" d="M53 -236l58 574h321l-215 -574h-164zM481 -236l58 574h321l-215 -574h-164z" />
<glyph unicode="&#x2022;" horiz-adv-x="876" d="M80 764q0 76 27.5 140.5t75.5 112.5t113.5 75.5t141.5 27.5t140.5 -27.5t112.5 -75.5t76 -112.5t28 -140.5t-28 -140.5t-76 -112.5t-112.5 -75.5t-140.5 -27.5t-141.5 27.5t-113.5 75.5t-75.5 112.5t-27.5 140.5z" />
<glyph unicode="&#x2026;" horiz-adv-x="1466" d="M68 154q0 72 48 120t120 48t121 -48t49 -120t-49.5 -120t-120.5 -48q-72 0 -120 48t-48 120zM565 154q0 72 48.5 120t119.5 48q72 0 120 -48t48 -120t-48 -120t-120 -48t-120 48t-48 120zM1061 154q0 72 49 120t121 48t120 -48t48 -120t-48 -120t-120 -48t-121 48 t-49 120z" />
<glyph unicode="&#x202f;" horiz-adv-x="393" />
<glyph unicode="&#x2039;" horiz-adv-x="591" d="M35 545l332 401h165l-184 -401l184 -402h-165z" />
<glyph unicode="&#x203a;" horiz-adv-x="591" d="M59 143l183 402l-183 401h166l332 -401l-332 -402h-166z" />
<glyph unicode="&#x205f;" horiz-adv-x="492" />
<glyph unicode="&#x2122;" horiz-adv-x="1597" d="M61 1333v142h553v-142h-190v-553h-172v553h-191zM719 780v695h248l137 -482h6l141 482h248v-695h-160v518h-4l-151 -518h-158l-149 518h-5v-518h-153z" />
<glyph unicode="&#x25fc;" horiz-adv-x="1085" d="M0 0v1085h1085v-1085h-1085z" />
<glyph unicode="&#xfb01;" horiz-adv-x="1331" d="M25 877v206h194v115q0 178 94.5 267t272.5 89q72 0 122 -6t95 -18v-205q-29 10 -61.5 15.5t-79.5 5.5q-70 0 -104 -33t-34 -107v-123h258v-206h-258v-877h-305v877h-194zM897 1249v240h332v-240h-332zM909 0v1090h308v-1090h-308z" />
<glyph unicode="&#xfb02;" horiz-adv-x="1331" d="M25 877v206h194v115q0 178 94.5 267t272.5 89q72 0 122 -6t95 -18v-205q-29 10 -61.5 15.5t-79.5 5.5q-70 0 -104 -33t-34 -107v-123h258v-206h-258v-877h-305v877h-194zM909 0v1501l308 49v-1550h-308z" />
</font>
</defs>
</svg>
